Coordinates
version=1
nRows=17
nColumns=24
inDegrees=yes

Units are S.I. units (second, meters, Newtons, ...)
Angles are in degrees.

endheader
time	pelvis_tilt	pelvis_list	pelvis_rotation	pelvis_tx	pelvis_ty	pelvis_tz	hip_flexion_r	hip_adduction_r	hip_rotation_r	knee_angle_r	ankle_angle_r	subtalar_angle_r	mtp_angle_r	hip_flexion_l	hip_adduction_l	hip_rotation_l	knee_angle_l	ankle_angle_l	subtalar_angle_l	mtp_angle_l	lumbar_extension	lumbar_bending	lumbar_rotation
      0.52500000	     -1.46346788	      5.05612712	     -1.85355932	     -0.83698902	      1.05118715	      0.35814656	     23.96458034	     -0.81417293	     -7.53157621	     -0.09640475	      1.06238848	     -2.63562210	     -0.04437828	    -13.91345494	      9.99930939	     -0.05114033	     -3.65478525	      9.00679238	     -2.72354181	     -0.03066533	      5.49790749	     -2.66391736	     -1.57394411
      0.52916667	     -1.52246948	      5.11362322	     -1.94851592	     -0.83150681	      1.05061461	      0.35838682	     24.01369436	     -0.77060626	     -7.40674428	     -0.30370178	      0.92758561	     -2.46551505	     -0.03980877	    -13.94058136	     10.08375209	     -0.10712978	     -4.08171737	      8.79741743	     -2.82310260	     -0.08870928	      5.43803902	     -2.76188007	     -1.76269145
      0.53333333	     -1.52677098	      5.10099868	     -1.97545064	     -0.82579738	      1.05021415	      0.35850664	     23.95693315	     -0.69003042	     -7.36070064	     -0.52992423	      0.91744448	     -2.46732035	     -0.03837254	    -14.04903952	     10.07652735	     -0.06013608	     -4.50745720	      8.76834360	     -2.85583475	     -0.09929836	      5.52144521	     -2.73645412	     -1.78717425
      0.53750000	     -1.53368036	      5.08341380	     -2.00394947	     -0.82001283	      1.04985759	      0.35860889	     23.89887098	     -0.61186631	     -7.29165046	     -0.80435041	      0.89298197	     -2.48074334	     -0.03658232	    -14.12470748	     10.06386592	     -0.03228034	     -4.99996117	      8.73984794	     -2.90239633	     -0.11013519	      5.58548506	     -2.69551900	     -1.81376357
      0.54166667	     -1.54175734	      5.06359973	     -2.03378372	     -0.81420140	      1.04951450	      0.35869087	     23.84309363	     -0.53655796	     -7.20088407	     -1.12017994	      0.84821182	     -2.50418059	     -0.03479755	    -14.18885667	     10.04895539	     -0.01171455	     -5.51497804	      8.70399728	     -2.94498230	     -0.11889923	      5.64244437	     -2.64518350	     -1.83691679
      0.54583333	     -1.54657546	      5.04217034	     -2.06658060	     -0.80837949	      1.04919366	      0.35875932	     23.78290875	     -0.46566491	     -7.08294145	     -1.46619553	      0.77231534	     -2.54544995	     -0.03273114	    -14.24227343	     10.03316741	     -0.01370073	     -6.05521709	      8.65232492	     -2.98965716	     -0.12777781	      5.69592191	     -2.58394350	     -1.86164666
      0.55000000	     -1.60435309	      5.02048591	     -2.25226780	     -0.80244415	      1.04873961	      0.35916661	     23.76653720	     -0.31822782	     -6.55255798	     -1.78325981	      0.31373089	     -3.09972323	     -0.01359685	    -14.21830216	     10.03598838	     -0.28202152	     -6.60300647	      8.44400003	     -3.08623700	     -0.19113306	      5.84479934	     -2.58451433	     -1.95841505
      0.55416667	     -1.59673583	      4.98283337	     -2.23973007	     -0.79656386	      1.04854046	      0.35915590	     23.67030992	     -0.26210513	     -6.44227927	     -2.15688008	      0.25016098	     -3.13437173	     -0.01069860	    -14.24135328	      9.98721738	     -0.25202667	     -7.23502915	      8.39215528	     -3.08837303	     -0.19490898	      5.88312228	     -2.49861579	     -1.96458733
      0.55833333	     -1.58637315	      4.94365695	     -2.24755645	     -0.79065869	      1.04836892	      0.35915670	     23.56987092	     -0.20488246	     -6.31525543	     -2.53406736	      0.11803590	     -3.18573137	     -0.00771410	    -14.24401141	      9.93965443	     -0.28688368	     -7.91080408	      8.30882373	     -3.08308597	     -0.19780842	      5.91575686	     -2.39917828	     -1.97456529
      0.56250000	     -1.65744232	      4.86875030	     -2.36325303	     -0.78456489	      1.04806778	      0.35947635	     23.54586804	     -0.04500970	     -6.03403809	     -2.88897842	     -0.46338346	     -3.51317963	      0.00335479	    -14.13103410	      9.85520906	     -0.69742538	     -8.61732870	      8.03593837	     -2.92234347	     -0.20067379	      5.85774436	     -2.24062878	     -1.99829142
      0.56666667	     -1.59587218	      4.81991956	     -2.37376721	     -0.77864019	      1.04804575	      0.35944906	     23.37328391	      0.00307538	     -5.87834364	     -3.26399193	     -0.58923648	     -3.56642328	      0.00707993	    -14.14991223	      9.79417710	     -0.70414888	     -9.36281072	      7.95234467	     -2.89244332	     -0.19848293	      5.98874606	     -2.17055371	     -1.99198318
      0.57083333	     -1.63297168	      4.70921430	     -2.55683395	     -0.77247494	      1.04785296	      0.36029029	     23.22820924	      0.26177801	     -5.03183783	     -3.45793583	     -1.54994820	     -5.01499057	      0.08031029	    -14.01722815	      9.62603893	     -1.38819081	    -10.17548154	      7.80054953	     -2.03233846	     -0.10184726	      6.09608679	     -2.03853016	     -1.86394905
      0.57500000	     -1.64290928	      4.60488082	     -2.57125804	     -0.76635444	      1.04782740	      0.36038413	     23.11019712	      0.37578144	     -4.96310834	     -3.81647326	     -1.82468322	     -5.01217681	      0.09560842	    -13.90287769	      9.47988548	     -1.65653928	    -11.03293744	      7.58980921	     -1.97915256	     -0.08170775	      6.08079904	     -1.91745429	     -1.86939284
      0.57916667	     -1.61571133	      4.49957516	     -2.69212363	     -0.76022180	      1.04783560	      0.36061130	     22.96976910	      0.52196047	     -4.81399057	     -4.17936504	     -2.38110025	     -5.14381721	      0.12245028	    -13.80942859	      9.35287636	     -2.06274562	    -11.89451499	      7.19682141	     -1.68583455	     -0.02969153	      6.15707609	     -1.72556908	     -1.87584390
      0.58333333	     -1.62318504	      4.36851357	     -2.67859852	     -0.75405882	      1.04792122	      0.36074699	     22.81709600	      0.65028270	     -4.67534554	     -4.49925659	     -2.70314289	     -5.26565062	      0.14036467	    -13.64067919	      9.14884079	     -2.37026072	    -12.85599899	      6.94050356	     -1.52938970	      0.01128957	      6.13690099	     -1.58329493	     -1.87924199
      0.58750000	     -1.56248226	      4.25364714	     -2.84375692	     -0.74793569	      1.04802465	      0.36109375	     22.64119675	      0.81517842	     -4.46466094	     -4.86900139	     -3.35084410	     -5.62378389	      0.17629754	    -13.52849006	      9.00013571	     -2.86623380	    -13.80370974	      6.44558438	     -1.03078421	      0.11471660	      6.26622863	     -1.36861896	     -1.87951424
      0.59166667	     -1.57585313	      4.10320965	     -2.79519709	     -0.74175671	      1.04819757	      0.36120648	     22.48267832	      0.94261906	     -4.35114616	     -5.18316175	     -3.58381190	     -5.73300552	      0.19275738	    -13.29322888	      8.74769865	     -3.18045012	    -14.88486177	      6.21058084	     -0.91329105	      0.16287342	      6.20389468	     -1.23069380	     -1.88391411
